<?xml version="1.0" standalone="no"?>
<!DOCTYPE svg PUBLIC "-//W3C//DTD SVG 20010904//EN"
 "http://www.w3.org/TR/2001/REC-SVG-20010904/DTD/svg10.dtd">
<svg version="1.0" xmlns="http://www.w3.org/2000/svg"
 width="300.000000pt" height="300.000000pt" viewBox="0 0 300.000000 300.000000"
 preserveAspectRatio="xMidYMid meet">
<metadata>
Created by potrace 1.10, written by Peter Selinger 2001-2011
</metadata>
<g transform="translate(0.000000,300.000000) scale(0.100000,-0.100000)"
fill="#00aaff" stroke="none">
<path d="M0 1500 l0 -1500 1500 0 1500 0 0 1500 0 1500 -1500 0 -1500 0 0
-1500z m2034 544 c95 -33 176 -141 228 -304 20 -65 23 -95 23 -230 0 -174 -12
-235 -70 -358 -77 -164 -217 -237 -336 -176 -46 23 -85 70 -159 189 -117 186
-177 234 -296 235 -104 0 -173 -44 -260 -166 -61 -85 -124 -141 -169 -150
-151 -28 -257 93 -286 328 -24 203 29 410 124 482 51 38 109 52 160 37 59 -18
98 -50 162 -136 70 -93 132 -148 183 -163 54 -16 135 -15 177 2 57 24 133 104
195 206 75 122 119 173 172 199 51 25 89 26 152 5z"/>
</g>
</svg>
