<?xml version="1.0" encoding="UTF-8"?>
<svg version="1.1" xmlns="http://www.w3.org/2000/svg" width="1024" height="1024">
<path d="M0 0 C337.92 0 675.84 0 1024 0 C1024 337.92 1024 675.84 1024 1024 C686.08 1024 348.16 1024 0 1024 C0 686.08 0 348.16 0 0 Z " fill="#000C20" transform="translate(0,0)"/>
<path d="M0 0 C5.78804506 4.19158548 11.09026706 8.7509389 16.25 13.6875 C16.91257812 14.28691406 17.57515625 14.88632812 18.2578125 15.50390625 C29.36156326 25.91086293 37.31088131 39.28047719 44.25 52.6875 C44.76191895 53.66444824 44.76191895 53.66444824 45.28417969 54.66113281 C54.37817501 72.23125392 60.32868319 91.33515516 64.25 110.6875 C64.41983398 111.49751465 64.58966797 112.3075293 64.76464844 113.14208984 C65.31495239 115.77966781 65.84804258 118.42016405 66.375 121.0625 C66.53387695 121.83940186 66.69275391 122.61630371 66.85644531 123.41674805 C70.09875433 140.32624282 70.65791791 157.32765978 70.625 174.5 C70.62418427 176.11048721 70.62418427 176.11048721 70.62335205 177.75350952 C70.58238878 195.40851458 69.52545825 212.30684692 66.25 229.6875 C66.04632812 230.84330566 65.84265625 231.99911133 65.6328125 233.18994141 C57.98869519 276.0524418 39.83793998 323.8416603 2.94140625 350.08984375 C-15.55381168 362.7251649 -35.38751096 367.73574619 -57.6796875 364.03515625 C-60.85137715 363.13172876 -63.74547021 362.04399256 -66.75 360.6875 C-67.80960938 360.22472656 -68.86921875 359.76195312 -69.9609375 359.28515625 C-78.99460475 354.89706848 -85.78566901 348.77110824 -92.75 341.6875 C-93.84248047 340.59308594 -93.84248047 340.59308594 -94.95703125 339.4765625 C-106.98260432 326.69173737 -115.6526181 310.57266673 -124.75 295.6875 C-139.91647594 270.25052962 -139.91647594 270.25052962 -157.75 246.6875 C-158.60207031 245.70265625 -159.45414063 244.7178125 -160.33203125 243.703125 C-175.57398811 226.40282954 -195.39406708 213.7151855 -218.75 211.6875 C-244.04983334 210.17010043 -265.93244601 217.32227747 -285 234.1875 C-286.59201929 235.678278 -288.17592746 237.17778477 -289.75 238.6875 C-290.41386719 239.29980469 -291.07773437 239.91210938 -291.76171875 240.54296875 C-304.35079958 252.51919371 -314.06231057 267.79332131 -324.03515625 281.92578125 C-328.54063369 288.25852986 -333.42351137 294.02987975 -338.75 299.6875 C-339.36230469 300.37585938 -339.97460938 301.06421875 -340.60546875 301.7734375 C-351.18715803 313.18992956 -367.03330633 322.0878267 -382.71875 322.890625 C-404.41818874 323.27173742 -420.4317168 316.50805033 -436.25 301.5625 C-457.7674486 279.3714617 -465.61861142 248.23454528 -470.75 218.6875 C-471.10191406 216.79257812 -471.10191406 216.79257812 -471.4609375 214.859375 C-473.89589806 200.8142402 -473.85448148 186.53476614 -473.92523193 172.32281494 C-473.9332818 170.79866649 -473.94429076 169.27453019 -473.95855713 167.75042725 C-474.04413371 157.51541132 -473.2766426 147.8241319 -471.75 137.6875 C-471.58424859 136.19543893 -471.42920741 134.70207599 -471.29296875 133.20703125 C-468.55182728 104.62084158 -458.57960806 73.06052933 -438.75 51.6875 C-437.95722656 50.81480469 -437.16445313 49.94210937 -436.34765625 49.04296875 C-425.58146156 37.69849504 -410.5285121 28.21754643 -394.5234375 27.3515625 C-372.11429193 26.88912749 -354.32770526 35.53868473 -338.29248047 50.86669922 C-331.72163119 57.29194564 -326.15382686 64.27102334 -320.75 71.6875 C-319.73679687 73.07775391 -319.73679687 73.07775391 -318.703125 74.49609375 C-317.40255871 76.28827409 -316.10307653 78.08124166 -314.8046875 79.875 C-308.55529223 88.42930531 -302.14095946 96.57933838 -294.9140625 104.33203125 C-292.75 106.6875 -292.75 106.6875 -290.3125 109.8125 C-277.55702841 124.12351691 -257.98582992 134.59853515 -238.69604492 135.89233398 C-235.27412898 135.99154556 -231.86078068 136.00952499 -228.4375 136 C-227.29087891 136.01611328 -226.14425781 136.03222656 -224.96289062 136.04882812 C-201.81655756 136.06192735 -180.99586044 125.37337105 -164.4375 109.75 C-149.63829002 94.53317563 -138.71513686 75.8167655 -127.93310547 57.67675781 C-120.98480318 45.99397468 -113.90623133 34.57161374 -105.75 23.6875 C-104.76966797 22.36878906 -104.76966797 22.36878906 -103.76953125 21.0234375 C-77.27355393 -13.39401758 -38.06073676 -26.14465593 0 0 Z " fill="#00E0FE" transform="translate(712.75,334.3125)"/>
<path d="M0 0 C0.66 0 1.32 0 2 0 C2.47267779 1.92447388 2.94534721 3.84894981 3.41796875 5.7734375 C3.93837392 7.76424923 4.55674865 9.72885107 5.1875 11.6875 C5.99859012 14.99425204 5.97440172 16.78447434 5 20 C5.66 20.33 6.32 20.66 7 21 C7.37890625 23.6171875 7.37890625 23.6171875 7.5625 26.875 C7.75886324 30.20115284 7.94375608 32.83126825 9 36 C8.67 36.99 8.34 37.98 8 39 C8.33 39.61875 8.66 40.2375 9 40.875 C10 43 10 43 9.53515625 45.19921875 C8.88816626 48.58529046 9.13576867 51.50670298 9.4375 54.9375 C9.8136344 59.3130382 10.06035524 63.60748011 10 68 C9.34 68 8.68 68 8 68 C8.14261094 70.18771244 8.28924461 72.37516282 8.4375 74.5625 C8.52386719 75.83867188 8.61023438 77.11484375 8.69921875 78.4296875 C8.92301266 81.08615029 9.23674185 83.58172785 9.75 86.1875 C9.8325 87.115625 9.915 88.04375 10 89 C8.515625 90.67578125 8.515625 90.67578125 7 92 C6.98541748 90.68209473 6.97083496 89.36418945 6.95581055 88.00634766 C6.87942619 46.9664792 6.87942619 46.9664792 0.55078125 6.5390625 C0 4 0 4 0 0 Z " fill="#03263E" transform="translate(776,441)"/>
<path d="M0 0 C-2.83105073 4.36453654 -5.28814636 5.74517734 -10.03125 7.3203125 C-12.62688815 8.21642567 -14.78171293 9.38670031 -17 11 C-17.33 11.99 -17.66 12.98 -18 14 C-19.175625 14.433125 -19.175625 14.433125 -20.375 14.875 C-23.70518339 16.30222145 -24.20325086 17.93055354 -26 21 C-28.5 22.625 -28.5 22.625 -31 24 C-31.556875 24.556875 -32.11375 25.11375 -32.6875 25.6875 C-33.120625 26.120625 -33.55375 26.55375 -34 27 C-34.66 27 -35.32 27 -36 27 C-36 28.32 -36 29.64 -36 31 C-38.25 33.4375 -38.25 33.4375 -41 36 C-42.35555293 37.64864545 -43.69631653 39.31003995 -45 41 C-45.99 40.67 -46.98 40.34 -48 40 C-42.59530787 33.07845967 -36.97835583 26.43266957 -31 20 C-30.32582031 19.24847656 -29.65164063 18.49695313 -28.95703125 17.72265625 C-23.44105276 11.83411636 -8.46154955 -2.82051652 0 0 Z " fill="#02324D" transform="translate(452,554)"/>
<path d="M0 0 C0.33 0 0.66 0 1 0 C0.99214478 1.76706299 0.99214478 1.76706299 0.98413086 3.56982422 C0.96573261 8.03173024 0.95444374 12.49363308 0.94506836 16.95556641 C0.94010632 18.86963468 0.93333454 20.78369931 0.92456055 22.69775391 C0.88072848 32.52129307 0.91315319 42.32106755 1.44140625 52.1328125 C1.49988991 53.24219681 1.49988991 53.24219681 1.55955505 54.37399292 C1.76145058 57.69378698 2.08204524 60.80095143 3 64 C3.12205329 66.67540816 3.04467313 69.31961238 3 72 C2.01 72 1.02 72 0 72 C-0.9331704 65.06787704 -1.08247702 58.2515536 -0.96289062 51.27148438 C-0.94086375 49.51441744 -0.9661732 47.75687938 -1 46 C-1.33 45.67 -1.66 45.34 -2 45 C-2.1722479 42.5773124 -2.2837692 40.18017375 -2.3515625 37.75390625 C-2.37471527 37.02759506 -2.39786804 36.30128387 -2.42172241 35.55296326 C-2.46942342 34.01381567 -2.5146499 32.47458974 -2.55761719 30.93530273 C-2.62462484 28.57571086 -2.70240392 26.21664436 -2.78125 23.85742188 C-2.82617287 22.36460281 -2.87046468 20.8717646 -2.9140625 19.37890625 C-2.93796051 18.67053116 -2.96185852 17.96215607 -2.98648071 17.23231506 C-3.11486325 12.22972651 -3.11486325 12.22972651 -2 10 C-1.69208131 7.66922657 -1.49104726 5.33758104 -1.28125 2.99609375 C-1 1 -1 1 0 0 Z " fill="#02223D" transform="translate(239,480)"/>
<path d="M0 0 C0.99 0.33 1.98 0.66 3 1 C1.53028784 2.97431333 0.05596859 4.94485168 -1.42578125 6.91015625 C-2.60484322 8.47541221 -3.77375958 10.04831944 -4.9375 11.625 C-7.15213562 14.17518647 -9.54007972 16.22909683 -12.125 18.390625 C-14.08780394 20.07536505 -15.96048033 21.81928082 -17.8125 23.625 C-18.65748047 24.44871094 -18.65748047 24.44871094 -19.51953125 25.2890625 C-21.10694471 26.95164583 -21.10694471 26.95164583 -21.94140625 29.1640625 C-23 31 -23 31 -24.9453125 31.609375 C-26.96354167 31.73958333 -28.98177083 31.86979167 -31 32 C-31.33 31.34 -31.66 30.68 -32 30 C-31.32195313 29.52691406 -30.64390625 29.05382812 -29.9453125 28.56640625 C-18.28031514 20.27811865 -8.97952904 11.04516215 0 0 Z " fill="#03253D" transform="translate(742,657)"/>
<path d="M0 0 C0.66 1.32 1.32 2.64 2 4 C0.12699975 4.65161012 -1.7485055 5.29602195 -3.625 5.9375 C-4.66914063 6.29714844 -5.71328125 6.65679687 -6.7890625 7.02734375 C-14.26115919 9.2907891 -21.57220322 9.18333183 -29.3125 9.1875 C-30.49779297 9.19974609 -31.68308594 9.21199219 -32.90429688 9.22460938 C-39.60136128 9.23575258 -45.53118331 8.75413786 -52 7 C-52 6.67 -52 6.34 -52 6 C-50.35492782 5.80593522 -48.70890406 5.61992065 -47.0625 5.4375 C-45.68771484 5.28087891 -45.68771484 5.28087891 -44.28515625 5.12109375 C-43.53105469 5.08113281 -42.77695312 5.04117187 -42 5 C-41.67 5.33 -41.34 5.66 -41 6 C-39.27835029 6.09957162 -37.5526505 6.1308039 -35.828125 6.1328125 C-34.77109375 6.13410156 -33.7140625 6.13539063 -32.625 6.13671875 C-31.51125 6.13285156 -30.3975 6.12898438 -29.25 6.125 C-28.15171875 6.12886719 -27.0534375 6.13273437 -25.921875 6.13671875 C-24.8596875 6.13542969 -23.7975 6.13414062 -22.703125 6.1328125 C-21.73020508 6.13168457 -20.75728516 6.13055664 -19.75488281 6.12939453 C-17.06255503 6.00293816 -14.62482686 5.59300521 -12 5 C-10.06321983 4.64191784 -8.12570674 4.28777833 -6.1875 3.9375 C-4.72376953 3.67259766 -4.72376953 3.67259766 -3.23046875 3.40234375 C-2.12638672 3.20318359 -2.12638672 3.20318359 -1 3 C-0.67 2.01 -0.34 1.02 0 0 Z " fill="#022C47" transform="translate(514,462)"/>
<path d="M0 0 C0.99 1.32 1.98 2.64 3 4 C2.01 4.33 1.02 4.66 0 5 C-0.474375 6.134375 -0.94875 7.26875 -1.4375 8.4375 C-3 12 -3 12 -4.953125 12.96875 C-7.5476076 14.2758939 -8.05757008 15.47506267 -9.3125 18.0625 C-11.95895439 23.1252823 -15.0799865 27.82326018 -19 32 C-19.66 32 -20.32 32 -21 32 C-21.66 33.32 -22.32 34.64 -23 36 C-23.99 35.67 -24.98 35.34 -26 35 C-25.51273437 34.43796875 -25.02546875 33.8759375 -24.5234375 33.296875 C-17.23709242 24.65924411 -10.88006683 15.42015996 -4.48291016 6.11547852 C-3.03026272 4.04317196 -1.52977124 2.01584279 0 0 Z " fill="#032B45" transform="translate(403,595)"/>
<path d="M0 0 C0.66 0.33 1.32 0.66 2 1 C1.74605469 1.98355469 1.49210938 2.96710938 1.23046875 3.98046875 C-1.66920909 15.55798363 -3.48760157 27.16739889 -5 39 C-8.44643054 32.4382632 -7.27779529 25.99679487 -5.33984375 19.04296875 C-4.95359188 16.72101788 -5.391462 15.24690954 -6 13 C-5.00974907 10.33393981 -4.5722047 9.28610235 -2 8 C-2.061875 6.8553125 -2.061875 6.8553125 -2.125 5.6875 C-2 3 -2 3 0 0 Z " fill="#032039" transform="translate(246,437)"/>
<path d="M0 0 C1 2 2 4 3 6 C2.24034618 7.9486772 1.47815611 9.89646008 0.6953125 11.8359375 C-0.28757008 14.89502147 -0.06251429 17.8117711 0 21 C-0.66 21.99 -1.32 22.98 -2 24 C-2.79011181 26.58958113 -3.45555498 29.19618819 -4.12109375 31.8203125 C-4.41113281 32.53960938 -4.70117188 33.25890625 -5 34 C-6.485 34.495 -6.485 34.495 -8 35 C-7.8146167 34.35313232 -7.6292334 33.70626465 -7.43823242 33.03979492 C-5.42224559 25.85061336 -3.79539571 18.6284175 -2.3125 11.3125 C-2.08755859 10.21744141 -1.86261719 9.12238281 -1.63085938 7.99414062 C-1.08408216 5.33005588 -0.54051433 2.66536115 0 0 Z " fill="#022B45" transform="translate(778,564)"/>
<path d="M0 0 C5.94 0 11.88 0 18 0 C18 0.99 18 1.98 18 3 C16.34302621 3.69040574 14.6744239 4.3530635 13 5 C12.38125 5.2475 11.7625 5.495 11.125 5.75 C7.21937579 6.2094852 3.46741448 4.73370724 0 3 C0 2.01 0 1.02 0 0 Z " fill="#051C30" transform="translate(663,699)"/>
<path d="M0 0 C0.99 0.33 1.98 0.66 3 1 C5.41380329 1.20398338 7.83135238 1.36509535 10.25 1.5 C22.57971014 2.19323671 22.57971014 2.19323671 28 4 C28 4.66 28 5.32 28 6 C23.89954092 6.70969484 20.98268382 7.00979395 17 6 C14.66910844 5.80209411 12.33517289 5.63852721 10 5.5 C2.52112676 5.05633803 2.52112676 5.05633803 -1 4 C-1 1 -1 1 0 0 Z " fill="#032741" transform="translate(315,357)"/>
<path d="M0 0 C0.66 0 1.32 0 2 0 C2.47267779 1.92447388 2.94534721 3.84894981 3.41796875 5.7734375 C3.93837392 7.76424923 4.55674865 9.72885107 5.1875 11.6875 C5.99859012 14.99425204 5.97440172 16.78447434 5 20 C5.66 20.33 6.32 20.66 7 21 C7.4140625 23.28515625 7.4140625 23.28515625 7.625 26.0625 C7.69976563 26.98160156 7.77453125 27.90070313 7.8515625 28.84765625 C7.90054688 29.55792969 7.94953125 30.26820313 8 31 C7.34 31.33 6.68 31.66 6 32 C2.09925743 14.61707921 2.09925743 14.61707921 0.75 8.125 C0.60046875 7.40570313 0.4509375 6.68640625 0.296875 5.9453125 C0 4 0 4 0 0 Z " fill="#03243C" transform="translate(776,441)"/>
<path d="M0 0 C0.33 0 0.66 0 1 0 C1.53469802 1.72492978 2.05219175 3.455198 2.5625 5.1875 C2.85253906 6.15042969 3.14257812 7.11335937 3.44140625 8.10546875 C4.64635185 14.34927777 1.82850676 20.49683832 -1 26 C-2.60693281 17.16186956 -1.22331878 8.80587322 0 0 Z " fill="#013751" transform="translate(782,534)"/>
<path d="M0 0 C2.85423192 -0.02718316 5.70820015 -0.04692705 8.5625 -0.0625 C9.36236328 -0.07087891 10.16222656 -0.07925781 10.98632812 -0.08789062 C15.76002158 -0.10737509 20.31698388 0.02155117 25 1 C25.33 1.66 25.66 2.32 26 3 C22.88964926 4.03678358 21.31253703 3.77753266 18.1640625 3.26171875 C12.08103116 2.52604529 5.97346951 2.64141307 0 4 C0 2.68 0 1.36 0 0 Z " fill="#023955" transform="translate(476,545)"/>
<path d="M0 0 C0.33 0 0.66 0 1 0 C1.06058594 1.25296875 1.12117187 2.5059375 1.18359375 3.796875 C1.26802256 5.44792724 1.35266939 7.09896835 1.4375 8.75 C1.47681641 9.575 1.51613281 10.4 1.55664062 11.25 C1.59853516 12.04921875 1.64042969 12.8484375 1.68359375 13.671875 C1.72025146 14.4050293 1.75690918 15.13818359 1.79467773 15.89355469 C2.00131887 18.01353055 2.46298476 19.94251994 3 22 C3.12205329 24.67540816 3.04467313 27.31961238 3 30 C2.01 30 1.02 30 0 30 C-1.28341715 20.25978054 -2.31008946 9.62537274 0 0 Z " fill="#033550" transform="translate(239,522)"/>
<path d="M0 0 C-3.87684087 1.19287411 -6.91621923 2 -11 2 C-11 2.99 -11 3.98 -11 5 C-12.04800781 5.09087891 -12.04800781 5.09087891 -13.1171875 5.18359375 C-14.02726562 5.26738281 -14.93734375 5.35117187 -15.875 5.4375 C-16.77992188 5.51871094 -17.68484375 5.59992187 -18.6171875 5.68359375 C-21.01110861 5.86989285 -21.01110861 5.86989285 -23 7 C-23.66 6.34 -24.32 5.68 -25 5 C-6.76015474 -2.53505803 -6.76015474 -2.53505803 0 0 Z " fill="#023D5A" transform="translate(476,547)"/>
<path d="M0 0 C1.32 0.66 2.64 1.32 4 2 C1.73243277 3.65050138 -0.53878961 5.29550028 -2.8125 6.9375 C-3.45509766 7.40607422 -4.09769531 7.87464844 -4.75976562 8.35742188 C-5.38173828 8.80537109 -6.00371094 9.25332031 -6.64453125 9.71484375 C-7.21534424 10.12855225 -7.78615723 10.54226074 -8.37426758 10.96850586 C-10 12 -10 12 -13 13 C-12.71125 12.443125 -12.4225 11.88625 -12.125 11.3125 C-10.9586747 8.91505355 -9.9660119 6.48403061 -9 4 C-8.01 4.66 -7.02 5.32 -6 6 C-6 5.34 -6 4.68 -6 4 C-5.195625 3.71125 -4.39125 3.4225 -3.5625 3.125 C-0.8673532 2.26737432 -0.8673532 2.26737432 0 0 Z " fill="#023450" transform="translate(539,448)"/>
<path d="M0 0 C2.0625 0.4375 2.0625 0.4375 4 1 C2.67306301 2.00847211 1.33743723 3.00549539 0 4 C-0.57878906 4.433125 -1.15757812 4.86625 -1.75390625 5.3125 C-2.37136719 5.76625 -2.98882812 6.22 -3.625 6.6875 C-4.21539062 7.12449219 -4.80578125 7.56148438 -5.4140625 8.01171875 C-7 9 -7 9 -9 9 C-8.814375 8.4225 -8.62875 7.845 -8.4375 7.25 C-7.95976454 4.79307475 -8.24270636 3.35602466 -9 1 C-7.700625 1.020625 -6.40125 1.04125 -5.0625 1.0625 C-3.70834367 1.08399454 -2.35243917 1.07148199 -1 1 C-0.67 0.67 -0.34 0.34 0 0 Z " fill="#02243C" transform="translate(293,367)"/>
<path d="M0 0 C2.68234235 2.42457972 4.36856725 5.07510397 6.1875 8.1875 C6.71730469 9.08855469 7.24710938 9.98960937 7.79296875 10.91796875 C8.19128906 11.60503906 8.58960938 12.29210937 9 13 C8.34 13.66 7.68 14.32 7 15 C7 14.34 7 13.68 7 13 C5.68 12.67 4.36 12.34 3 12 C3 11.01 3 10.02 3 9 C2.01 8.67 1.02 8.34 0 8 C-0.38063221 5.6739143 -0.71269945 3.33944736 -1 1 C-0.67 0.67 -0.34 0.34 0 0 Z " fill="#032B45" transform="translate(581,619)"/>
<path d="M0 0 C0 0.33 0 0.66 0 1 C-0.65226563 1.19335938 -1.30453125 1.38671875 -1.9765625 1.5859375 C-6.6771398 2.98640448 -11.35840891 4.41208726 -16 6 C-16 4.35 -16 2.7 -16 1 C-10.28728907 -1.0662997 -5.96345767 -1.0006709 0 0 Z " fill="#032238" transform="translate(657,321)"/>
<path d="M0 0 C0.556875 0.70125 1.11375 1.4025 1.6875 2.125 C4.09124732 5.11344261 6.53810432 8.05940238 9 11 C8.01 12.485 8.01 12.485 7 14 C6.5875 13.38125 6.175 12.7625 5.75 12.125 C4.18076223 9.87902875 4.18076223 9.87902875 1.875 9.125 C0 8 0 8 -0.8125 5 C-1 2 -1 2 0 0 Z " fill="#03263F" transform="translate(265,621)"/>
<path d="M0 0 C0.66 0 1.32 0 2 0 C0 6 -2 12 -4 18 C-4.33 18 -4.66 18 -5 18 C-5.33 15.03 -5.66 12.06 -6 9 C-5.01 8.67 -4.02 8.34 -3 8 C-3 6.68 -3 5.36 -3 4 C-2.34 4 -1.68 4 -1 4 C-0.67 2.68 -0.34 1.36 0 0 Z " fill="#032842" transform="translate(255,412)"/>
<path d="M0 0 C0.99 0.33 1.98 0.66 3 1 C-0.67832017 5.52615993 -4.41086363 9.39424999 -9 13 C-9.66 12.34 -10.32 11.68 -11 11 C-10.01 10.34 -9.02 9.68 -8 9 C-7.67 8.319375 -7.34 7.63875 -7 6.9375 C-6 5 -6 5 -3 4 C-1.31461399 2.00334686 -1.31461399 2.00334686 0 0 Z " fill="#032942" transform="translate(281,375)"/>
<path d="M0 0 C4.01548242 0.61776653 6.8042108 2.56842126 10 5 C11.25 7.125 11.25 7.125 12 9 C12.66 9.66 13.32 10.32 14 11 C13.67 11.99 13.34 12.98 13 14 C10.83031809 11.85714108 8.66416525 9.71091768 6.5 7.5625 C5.87996094 6.95083984 5.25992187 6.33917969 4.62109375 5.70898438 C4.03457031 5.12568359 3.44804687 4.54238281 2.84375 3.94140625 C2.02680664 3.13231812 2.02680664 3.13231812 1.19335938 2.30688477 C0 1 0 1 0 0 Z " fill="#022C46" transform="translate(368,379)"/>
<path d="M0 0 C0.99 0 1.98 0 3 0 C4.35278115 1.98689731 5.68568305 3.98745218 7 6 C7.99 6.33 8.98 6.66 10 7 C11.1875 10.5625 11.1875 10.5625 12 14 C11.01 14.495 11.01 14.495 10 15 C8.70462174 13.2527456 7.41383727 11.50208483 6.125 9.75 C5.40570313 8.77546875 4.68640625 7.8009375 3.9453125 6.796875 C2.39017775 4.56097846 1.11795777 2.47127507 0 0 Z " fill="#022B45" transform="translate(382,393)"/>
<path d="M0 0 C0.99 0.66 1.98 1.32 3 2 C1.47065791 3.32684028 -0.07409505 4.63592933 -1.625 5.9375 C-2.48351562 6.66839844 -3.34203125 7.39929688 -4.2265625 8.15234375 C-7.24962041 10.16629642 -9.41659535 10.66898168 -13 11 C-12.34 10.484375 -11.68 9.96875 -11 9.4375 C-7.24666356 6.38791415 -3.62397965 3.2013319 0 0 Z " fill="#03273F" transform="translate(370,637)"/>
<path d="M0 0 C0.33 0 0.66 0 1 0 C1.06058594 1.29035156 1.12117187 2.58070313 1.18359375 3.91015625 C1.26805881 5.62761255 1.35270377 7.34506002 1.4375 9.0625 C1.47681641 9.91005859 1.51613281 10.75761719 1.55664062 11.63085938 C1.75043391 15.49181793 2.02209431 19.1202647 2.72265625 22.93359375 C2.85994141 24.45146484 2.85994141 24.45146484 3 26 C2.01 26.99 1.02 27.98 0 29 C0 19.43 0 9.86 0 0 Z " fill="#02415D" transform="translate(783,504)"/>
<path d="M0 0 C0.268125 0.61875 0.53625 1.2375 0.8125 1.875 C1.95556848 4.2995233 1.95556848 4.2995233 5 6 C4.67 6.99 4.34 7.98 4 9 C4.33 9.99 4.66 10.98 5 12 C4.72428861 14.00875442 4.39764263 16.01178687 4 18 C2.44596314 15.06836714 1.30198368 12.16634776 0.3125 9 C0.04050781 8.154375 -0.23148438 7.30875 -0.51171875 6.4375 C-1.02468085 3.8767932 -0.84216387 2.44171002 0 0 Z " fill="#022D47" transform="translate(772,421)"/>
<path d="M0 0 C1.98 0.99 3.96 1.98 6 3 C6 3.66 6 4.32 6 5 C7.56418154 6.28463521 7.56418154 6.28463521 9.5 7.5 C11.46875 8.78125 11.46875 8.78125 13 10 C13 10.66 13 11.32 13 12 C13.66 12 14.32 12 15 12 C14.67 12.66 14.34 13.32 14 14 C8.92377741 10.08566836 3.89372312 6.14084264 -1 2 C-0.67 1.34 -0.34 0.68 0 0 Z " fill="#023A59" transform="translate(425,445)"/>
<path d="M0 0 C0.99 0 1.98 0 3 0 C2.88529863 1.75070517 2.75780972 3.50057536 2.625 5.25 C2.55539063 6.22453125 2.48578125 7.1990625 2.4140625 8.203125 C2.01534751 10.89633189 1.36492937 12.66963279 0 15 C-0.84604751 12.05897771 -1.13522521 9.43233732 -1.125 6.375 C-1.12757813 5.59898437 -1.13015625 4.82296875 -1.1328125 4.0234375 C-1 2 -1 2 0 0 Z " fill="#053F58" transform="translate(240,461)"/>
<path d="M0 0 C0.61875 0.350625 1.2375 0.70125 1.875 1.0625 C2.57625 1.371875 3.2775 1.68125 4 2 C4.66 1.67 5.32 1.34 6 1 C6.226875 1.721875 6.45375 2.44375 6.6875 3.1875 C7.88734656 6.20386926 7.88734656 6.20386926 10.6875 8.5625 C11.450625 9.366875 12.21375 10.17125 13 11 C12.64453125 13.15234375 12.64453125 13.15234375 12 15 C10.55726615 13.44233138 9.12103292 11.87864043 7.6875 10.3125 C6.88699219 9.44238281 6.08648437 8.57226562 5.26171875 7.67578125 C3.18451663 5.21829688 1.56168424 2.80496684 0 0 Z " fill="#02314C" transform="translate(409,429)"/>
<path d="M0 0 C0.66 0.33 1.32 0.66 2 1 C-0.475 4.465 -0.475 4.465 -3 8 C-3.99 7.01 -4.98 6.02 -6 5 C-6 5.66 -6 6.32 -6 7 C-7.98 7 -9.96 7 -12 7 C-9.79812328 4.79812328 -7.77114318 3.71821071 -5 2.3125 C-4.113125 1.85488281 -3.22625 1.39726563 -2.3125 0.92578125 C-1.549375 0.62027344 -0.78625 0.31476562 0 0 Z " fill="#032B44" transform="translate(708,688)"/>
<path d="M0 0 C0.66 0 1.32 0 2 0 C1.40312566 3.34249629 0.26396123 5.46436342 -2 8 C-2.66 8 -3.32 8 -4 8 C-4.66 9.32 -5.32 10.64 -6 12 C-6.99 11.67 -7.98 11.34 -9 11 C-7.5489926 9.16086305 -6.08898341 7.3288247 -4.625 5.5 C-3.81289063 4.4790625 -3.00078125 3.458125 -2.1640625 2.40625 C-1.44992187 1.6121875 -0.73578125 0.818125 0 0 Z " fill="#02263F" transform="translate(386,619)"/>
<path d="M0 0 C4.20846271 0.48935613 8.01772477 1.57775885 12 3 C12 3.66 12 4.32 12 5 C11.06027344 4.87431641 11.06027344 4.87431641 10.1015625 4.74609375 C8.87566406 4.59333984 8.87566406 4.59333984 7.625 4.4375 C6.40683594 4.28087891 6.40683594 4.28087891 5.1640625 4.12109375 C2.95100814 3.81762672 2.95100814 3.81762672 1 5 C1 4.01 1 3.02 1 2 C0.34 1.67 -0.32 1.34 -1 1 C-0.67 0.67 -0.34 0.34 0 0 Z " fill="#02314C" transform="translate(503,547)"/>
<path d="M0 0 C3 6 3 6 2.44140625 7.9453125 C2.00634766 9.02425781 2.00634766 9.02425781 1.5625 10.125 C1.27503906 10.84945312 0.98757813 11.57390625 0.69140625 12.3203125 C0.46324219 12.87460937 0.23507812 13.42890625 0 14 C-0.66 14 -1.32 14 -2 14 C-1.85795259 12.41632253 -1.71119847 10.83306682 -1.5625 9.25 C-1.48128906 8.36828125 -1.40007813 7.4865625 -1.31640625 6.578125 C-1.03761535 4.30649548 -0.61209423 2.20148177 0 0 Z " fill="#043A55" transform="translate(778,564)"/>
<path d="M0 0 C3.98381075 2.16264012 6.88983545 4.71211176 10 8 C9.01 8.33 8.02 8.66 7 9 C7 8.34 7 7.68 7 7 C4.03 6.505 4.03 6.505 1 6 C0 3 0 3 0 0 Z " fill="#013450" transform="translate(534,561)"/>
<path d="M0 0 C3.33557632 2.9905167 5.15083921 5.93184627 7 10 C6.34 10.66 5.68 11.32 5 12 C1.44439818 8.92925297 0.45196518 5.35589555 -1 1 C-0.67 0.67 -0.34 0.34 0 0 Z " fill="#022F48" transform="translate(567,597)"/>
<path d="M0 0 C0.99 0.33 1.98 0.66 3 1 C0.03 5.95 0.03 5.95 -3 11 C-3.66 10.01 -4.32 9.02 -5 8 C-3.35 5.36 -1.7 2.72 0 0 Z " fill="#032A45" transform="translate(581,394)"/>
<path d="M0 0 C0.66 0.33 1.32 0.66 2 1 C0.18690997 4.77727089 -1.9073259 8.37269822 -4 12 C-4.66 10.68 -5.32 9.36 -6 8 C-5.01 7.67 -4.02 7.34 -3 7 C-2.87625 6.030625 -2.7525 5.06125 -2.625 4.0625 C-2.41875 3.051875 -2.2125 2.04125 -2 1 C-1.34 0.67 -0.68 0.34 0 0 Z " fill="#03243C" transform="translate(266,392)"/>
<path d="M0 0 C0.66 0 1.32 0 2 0 C0.54955729 4.10958767 -1.51110752 7.43258745 -4 11 C-4.99 10.34 -5.98 9.68 -7 9 C-6.02180976 7.68677212 -5.0424189 6.37443848 -4.0625 5.0625 C-3.51722656 4.33160156 -2.97195313 3.60070312 -2.41015625 2.84765625 C-1 1 -1 1 0 0 Z " fill="#03263F" transform="translate(599,366)"/>
<path d="M0 0 C-2.97 3.96 -2.97 3.96 -6 8 C-6.99 7.34 -7.98 6.68 -9 6 C-8.8125 4.1875 -8.8125 4.1875 -8 2 C-3.744 -1.248 -3.744 -1.248 0 0 Z " fill="#03223A" transform="translate(608,358)"/>
<path d="M0 0 C2.32472205 2.85306797 3.7508258 5.54074837 5 9 C4.01 9.495 4.01 9.495 3 10 C2.34 9.67 1.68 9.34 1 9 C1 8.34 1 7.68 1 7 C0.34 7 -0.32 7 -1 7 C-0.67 4.69 -0.34 2.38 0 0 Z " fill="#03243D" transform="translate(257,607)"/>
<path d="M0 0 C0.66 0.33 1.32 0.66 2 1 C1.01 5.62 0.02 10.24 -1 15 C-1.33 13.68 -1.66 12.36 -2 11 C-2.66 11 -3.32 11 -4 11 C-4 10.34 -4 9.68 -4 9 C-3.34 8.67 -2.68 8.34 -2 8 C-2.04125 7.236875 -2.0825 6.47375 -2.125 5.6875 C-2 3 -2 3 0 0 Z " fill="#032B45" transform="translate(246,437)"/>
<path d="M0 0 C0.66 0.33 1.32 0.66 2 1 C0.02 3.97 -1.96 6.94 -4 10 C-4.99 9.67 -5.98 9.34 -7 9 C-7 8.01 -7 7.02 -7 6 C-6.01 6 -5.02 6 -4 6 C-4 5.34 -4 4.68 -4 4 C-3.34 4 -2.68 4 -2 4 C-1.34 2.68 -0.68 1.36 0 0 Z " fill="#012C46" transform="translate(568,416)"/>
<path d="M0 0 C5.94 0 11.88 0 18 0 C18 0.99 18 1.98 18 3 C16.02 3.99 16.02 3.99 14 5 C14.33 4.01 14.66 3.02 15 2 C10.05 1.67 5.1 1.34 0 1 C0 0.67 0 0.34 0 0 Z " fill="#014360" transform="translate(663,699)"/>
<path d="M0 0 C3.26008643 3.16952847 6.22237877 6.39937989 9 10 C8.01 10.495 8.01 10.495 7 11 C3.50330109 8.55231076 1.37722181 6.62205378 0.375 2.3125 C0.25125 1.549375 0.1275 0.78625 0 0 Z " fill="#02324D" transform="translate(551,576)"/>
<path d="M0 0 C2.31 1.98 4.62 3.96 7 6 C6.67 6.66 6.34 7.32 6 8 C4.35 7.67 2.7 7.34 1 7 C0.31292445 4.50935112 0 2.62113708 0 0 Z " fill="#02314D" transform="translate(544,569)"/>
<path d="M0 0 C0.66 0 1.32 0 2 0 C3.512545 5.16044765 4.33500455 8.65998179 3 14 C2.67 14 2.34 14 2 14 C1.66179834 12.4176994 1.32964061 10.83410625 1 9.25 C0.814375 8.36828125 0.62875 7.4865625 0.4375 6.578125 C0 4 0 4 0 0 Z " fill="#04314D" transform="translate(776,441)"/>
<path d="M0 0 C-0.33 0.99 -0.66 1.98 -1 3 C-2.98 3.33 -4.96 3.66 -7 4 C-7 4.99 -7 5.98 -7 7 C-7.66 6.67 -8.32 6.34 -9 6 C-8.8125 4.1875 -8.8125 4.1875 -8 2 C-3.744 -1.248 -3.744 -1.248 0 0 Z " fill="#02233C" transform="translate(358,649)"/>
<path d="M0 0 C2.64 1.98 5.28 3.96 8 6 C7.34 7.65 6.68 9.3 6 11 C3.02753198 8.45217026 1.58464712 5.54659117 0 2 C0 1.34 0 0.68 0 0 Z " fill="#02223B" transform="translate(278,637)"/>
<path d="M0 0 C0.99 0.33 1.98 0.66 3 1 C0.03 3.97 -2.94 6.94 -6 10 C-6.33 9.01 -6.66 8.02 -7 7 C-4.66666667 4.66666667 -2.33333333 2.33333333 0 0 Z " fill="#023452" transform="translate(550,439)"/>
<path d="M0 0 C1.32 0 2.64 0 4 0 C2.25 5.75 2.25 5.75 0 8 C-0.66 7.34 -1.32 6.68 -2 6 C-1.34 4.02 -0.68 2.04 0 0 Z " fill="#022541" transform="translate(257,404)"/>
<path d="M0 0 C0.99 0.33 1.98 0.66 3 1 C5.56634861 1.22718496 8.11678107 1.41608184 10.6875 1.5625 C11.7403418 1.62727539 11.7403418 1.62727539 12.81445312 1.69335938 C14.54275206 1.7991736 16.2713511 1.90006581 18 2 C18 2.33 18 2.66 18 3 C11.4 3.33 4.8 3.66 -2 4 C-1.34 2.68 -0.68 1.36 0 0 Z " fill="#052036" transform="translate(315,357)"/>
<path d="M0 0 C0.99 1.32 1.98 2.64 3 4 C2.01 4.33 1.02 4.66 0 5 C-1.68538601 6.99665314 -1.68538601 6.99665314 -3 9 C-3.99 8.67 -4.98 8.34 -6 8 C-4.02 5.36 -2.04 2.72 0 0 Z " fill="#023851" transform="translate(403,595)"/>
<path d="M0 0 C0 0.33 0 0.66 0 1 C2.97 1.495 2.97 1.495 6 2 C6 2.33 6 2.66 6 3 C-0.0018137 3.21824777 -5.19233704 2.5056904 -11 1 C-11 0.67 -11 0.34 -11 0 C-6.98195309 -0.84098656 -3.98196457 -1.05404945 0 0 Z " fill="#023F5E" transform="translate(473,468)"/>
<path d="M0 0 C1.32 0.33 2.64 0.66 4 1 C1.69 3.97 -0.62 6.94 -3 10 C-3.66 9.67 -4.32 9.34 -5 9 C-4.67 7.68 -4.34 6.36 -4 5 C-2.68 4.67 -1.36 4.34 0 4 C0 2.68 0 1.36 0 0 Z " fill="#012C47" transform="translate(557,429)"/>
<path d="M0 0 C0.33 0.66 0.66 1.32 1 2 C-1.78999451 5.48749314 -4.25235831 8.50157221 -8 11 C-8.66 10.67 -9.32 10.34 -10 10 C-6.7 6.7 -3.4 3.4 0 0 Z " fill="#0CDEF9" transform="translate(283,377)"/>
<path d="M0 0 C0.33 0.66 0.66 1.32 1 2 C1.66 2.33 2.32 2.66 3 3 C2.690625 3.598125 2.38125 4.19625 2.0625 4.8125 C0.89790296 7.08956772 0.89790296 7.08956772 0 10 C-0.99 9.67 -1.98 9.34 -3 9 C-2.01 6.03 -1.02 3.06 0 0 Z " fill="#032942" transform="translate(761,622)"/>
<path d="M0 0 C0.33 1.32 0.66 2.64 1 4 C-0.9375 6.75 -0.9375 6.75 -3 9 C-3.99 8.67 -4.98 8.34 -6 8 C-4.02 5.36 -2.04 2.72 0 0 Z " fill="#033854" transform="translate(410,586)"/>
<path d="M0 0 C0.33 0.66 0.66 1.32 1 2 C-0.58711039 5.65035389 -2.353906 9.0087633 -5 12 C-5.66 12 -6.32 12 -7 12 C-5.44298069 7.32894208 -2.91552627 3.91294315 0 0 Z " fill="#0AD3EC" transform="translate(576,407)"/>
<path d="M0 0 C2.4375 0.625 2.4375 0.625 5 2 C5.8125 5.125 5.8125 5.125 6 8 C5.01 8.33 4.02 8.66 3 9 C2.01 6.03 1.02 3.06 0 0 Z " fill="#02243A" transform="translate(764,403)"/>
<path d="M0 0 C4.875 4.625 4.875 4.625 6 8 C5.34 8.66 4.68 9.32 4 10 C1.2027092 7.93243723 0.97307727 6.85559629 0.3125 3.3125 C0.209375 2.219375 0.10625 1.12625 0 0 Z " fill="#03334E" transform="translate(560,587)"/>
<path d="M0 0 C3 3 3 3 3.4375 5.375 C3 8 3 8 -1 13 C-0.67 8.71 -0.34 4.42 0 0 Z " fill="#032A43" transform="translate(783,541)"/>
<path d="M0 0 C-0.185625 0.78375 -0.37125 1.5675 -0.5625 2.375 C-1.25962266 4.97089775 -1.25962266 4.97089775 0 7 C-0.66 7.66 -1.32 8.32 -2 9 C-2.99 6.69 -3.98 4.38 -5 2 C-2 0 -2 0 0 0 Z " fill="#012943" transform="translate(761,384)"/>
<path d="M0 0 C4 5 4 5 3.953125 7.67578125 C3.72109375 8.54589844 3.4890625 9.41601562 3.25 10.3125 C3.02828125 11.19550781 2.8065625 12.07851563 2.578125 12.98828125 C2.29195312 13.98408203 2.29195312 13.98408203 2 15 C1.67 15 1.34 15 1 15 C0.67 10.05 0.34 5.1 0 0 Z " fill="#003751" transform="translate(781,470)"/>
<path d="M0 0 C0.33 0.66 0.66 1.32 1 2 C1.66 2.33 2.32 2.66 3 3 C-0.75 6 -0.75 6 -3 6 C-3.66 7.32 -4.32 8.64 -5 10 C-5.66 9.67 -6.32 9.34 -7 9 C-4.69 6.03 -2.38 3.06 0 0 Z " fill="#0ACFEC" transform="translate(613,350)"/>
<path d="M0 0 C0 1.32 0 2.64 0 4 C-3.73487777 3.5020163 -5.81237635 3.12508244 -9 1 C-5.86314002 -0.04561999 -3.27634061 0 0 0 Z " fill="#033854" transform="translate(462,464)"/>
<path d="M0 0 C0.99 0.33 1.98 0.66 3 1 C0.69 3.31 -1.62 5.62 -4 8 C-4.33 6.68 -4.66 5.36 -5 4 C-2.6875 1.9375 -2.6875 1.9375 0 0 Z " fill="#012C49" transform="translate(621,339)"/>
<path d="M0 0 C1.73543126 2.60314689 2.61121812 3.98694043 3 7 C2.34 7.66 1.68 8.32 1 9 C-0.625 7.3125 -0.625 7.3125 -2 5 C-1.1875 2.25 -1.1875 2.25 0 0 Z " fill="#022C45" transform="translate(253,597)"/>
<path d="M0 0 C2.29633824 3.44450737 2.54016485 5.93812283 3 10 C2.01 10.495 2.01 10.495 1 11 C-1.03684712 6.92630576 -1.0257259 4.41062136 0 0 Z " fill="#043048" transform="translate(247,578)"/>
<path d="M0 0 C3.53233755 1.17744585 3.86308075 1.95605641 5.6875 5.0625 C6.12449219 5.79597656 6.56148438 6.52945312 7.01171875 7.28515625 C7.33785156 7.85105469 7.66398437 8.41695313 8 9 C7.01 9.495 7.01 9.495 6 10 C5.67 8.68 5.34 7.36 5 6 C4.34 6 3.68 6 3 6 C1.375 4.6875 1.375 4.6875 0 3 C0 2.01 0 1.02 0 0 Z " fill="#09D1ED" transform="translate(389,405)"/>
<path d="M0 0 C0 0.99 0 1.98 0 3 C-3.37362154 5.60250805 -5.76907828 6.36265043 -10 6 C-6.87567603 3.47650757 -3.61939504 1.72743854 0 0 Z " fill="#0ED6EF" transform="translate(645,325)"/>
<path d="M0 0 C-0.66 1.32 -1.32 2.64 -2 4 C-3.65 4 -5.3 4 -7 4 C-7.33 3.01 -7.66 2.02 -8 1 C-5.23735711 0.40267181 -2.83967231 0 0 0 Z " fill="#02273D" transform="translate(690,697)"/>
<path d="M0 0 C4.29 1.32 8.58 2.64 13 4 C13 4.33 13 4.66 13 5 C11.20739868 4.94004678 9.41574205 4.8512759 7.625 4.75 C6.62726562 4.70359375 5.62953125 4.6571875 4.6015625 4.609375 C3.31378906 4.30773437 3.31378906 4.30773437 2 4 C1.34 2.68 0.68 1.36 0 0 Z " fill="#022943" transform="translate(643,693)"/>
<path d="M0 0 C3.465 1.485 3.465 1.485 7 3 C6.38125 3.28875 5.7625 3.5775 5.125 3.875 C2.86674235 4.93720042 2.86674235 4.93720042 1 7 C0.67 4.69 0.34 2.38 0 0 Z " fill="#032138" transform="translate(294,649)"/>
<path d="M0 0 C0.66 0.66 1.32 1.32 2 2 C0.68 4.31 -0.64 6.62 -2 9 C-2.66 8.01 -3.32 7.02 -4 6 C-2.68 4.02 -1.36 2.04 0 0 Z " fill="#022741" transform="translate(589,381)"/>
<path d="M0 0 C1.65 0.33 3.3 0.66 5 1 C5.33 2.32 5.66 3.64 6 5 C3.36 4.34 0.72 3.68 -2 3 C-1.34 2.67 -0.68 2.34 0 2 C0 1.34 0 0.68 0 0 Z " fill="#042C44" transform="translate(688,320)"/>
<path d="M0 0 C0.33 0 0.66 0 1 0 C1.36625971 4.51720311 1.36625971 4.51720311 -0.375 6.8125 C-2 8 -2 8 -4 8 C-2.87548273 5.0280615 -1.77706209 2.66559313 0 0 Z " fill="#022841" transform="translate(751,643)"/>
<path d="M0 0 C0.66 0.33 1.32 0.66 2 1 C0.68 4.63 -0.64 8.26 -2 12 C-2.66 10.68 -3.32 9.36 -4 8 C-2.6875 5.4375 -2.6875 5.4375 -1 3 C-0.67 2.01 -0.34 1.02 0 0 Z " fill="#0EDBF1" transform="translate(765,608)"/>
<path d="M0 0 C0.268125 0.61875 0.53625 1.2375 0.8125 1.875 C1.95556848 4.2995233 1.95556848 4.2995233 5 6 C3.02 6.99 3.02 6.99 1 8 C-0.42944945 5.64561267 -1.08661261 4.51967567 -0.625 1.75 C-0.41875 1.1725 -0.2125 0.595 0 0 Z " fill="#02253E" transform="translate(772,421)"/>
<path d="M0 0 C2.33944736 0.28730055 4.6739143 0.61936779 7 1 C6.401875 1.28875 5.80375 1.5775 5.1875 1.875 C2.80672208 3.04742026 2.80672208 3.04742026 0 5 C-0.5625 3.0625 -0.5625 3.0625 -1 1 C-0.67 0.67 -0.34 0.34 0 0 Z " fill="#031E37" transform="translate(656,698)"/>
<path d="M0 0 C1.65 0 3.3 0 5 0 C5 0.66 5 1.32 5 2 C6.32 2 7.64 2 9 2 C9 2.99 9 3.98 9 5 C5.54074837 3.7508258 2.85306797 2.32472205 0 0 Z " fill="#0AD2EB" transform="translate(520,552)"/>
<path d="M0 0 C1.65 1.65 3.3 3.3 5 5 C3.68 5 2.36 5 1 5 C0.34 3.68 -0.32 2.36 -1 1 C-0.67 0.67 -0.34 0.34 0 0 Z " fill="#04D4F0" transform="translate(427,449)"/>
<path d="M0 0 C0.99 0 1.98 0 3 0 C5.25 2.3125 5.25 2.3125 7 5 C6.67 5.99 6.34 6.98 6 8 C3.33264727 5.51047079 1.44253657 3.36591866 0 0 Z " fill="#02314C" transform="translate(393,408)"/>
<path d="M0 0 C0.99 0.33 1.98 0.66 3 1 C3 1.99 3 2.98 3 4 C3.99 4.33 4.98 4.66 6 5 C5.67 5.99 5.34 6.98 5 8 C2.74754119 5.31158141 1.11786042 3.35358125 0 0 Z " fill="#08DDF2" transform="translate(567,595)"/>
<path d="M0 0 C3.96 1.98 3.96 1.98 8 4 C7.34 4.66 6.68 5.32 6 6 C4.02 5.01 2.04 4.02 0 3 C0 2.01 0 1.02 0 0 Z " fill="#04304D" transform="translate(526,556)"/>
<path d="M0 0 C1.98 0.99 3.96 1.98 6 3 C5.67 4.32 5.34 5.64 5 7 C3.02 5.35 1.04 3.7 -1 2 C-0.67 1.34 -0.34 0.68 0 0 Z " fill="#02314D" transform="translate(425,445)"/>
<path d="M0 0 C0.99 0 1.98 0 3 0 C1.8141763 3.37503669 0.72426311 5.64722731 -2 8 C-2 6.35 -2 4.7 -2 3 C-1.34 3 -0.68 3 0 3 C0 2.01 0 1.02 0 0 Z " fill="#022A46" transform="translate(572,408)"/>
<path d="M0 0 C-0.66 1.32 -1.32 2.64 -2 4 C-3.65 2.68 -5.3 1.36 -7 0 C-4.3333581 -1.33332095 -2.83319697 -0.67102033 0 0 Z " fill="#042942" transform="translate(360,369)"/>
<path d="M0 0 C6.15234375 0.5859375 6.15234375 0.5859375 8 1 C8.33 1.66 8.66 2.32 9 3 C7.3125 3.75 7.3125 3.75 5 4 C2.25 2.0625 2.25 2.0625 0 0 Z " fill="#03233C" transform="translate(702,328)"/>
</svg>
